<svg xmlns="http://www.w3.org/2000/svg" xmlns:xlink="http://www.w3.org/1999/xlink" width="500" zoomAndPan="magnify" viewBox="0 0 375 374.999991" height="500" preserveAspectRatio="xMidYMid meet" version="1.0"><defs><clipPath id="76fc28a0da"><path d="M 141 101.257812 L 213 101.257812 L 213 180 L 141 180 Z M 141 101.257812 " clip-rule="nonzero"/></clipPath><clipPath id="2dfd7ee6e7"><path d="M 107.058594 149 L 252 149 L 252 273.757812 L 107.058594 273.757812 Z M 107.058594 149 " clip-rule="nonzero"/></clipPath><clipPath id="bb7ef68d00"><path d="M 123 149 L 268.308594 149 L 268.308594 273.757812 L 123 273.757812 Z M 123 149 " clip-rule="nonzero"/></clipPath><clipPath id="a2a6ee858d"><path d="M 159 101.257812 L 231 101.257812 L 231 180 L 159 180 Z M 159 101.257812 " clip-rule="nonzero"/></clipPath></defs><g clip-path="url(#76fc28a0da)"><path fill="#100f0f" d="M 208.078125 179.0625 C 205.828125 179.0625 204.003906 177.242188 204.003906 174.996094 L 204.003906 136.699219 C 204.003906 121.621094 191.714844 109.359375 176.613281 109.359375 C 161.507812 109.359375 149.214844 121.621094 149.214844 136.699219 L 149.214844 174.996094 C 149.214844 177.242188 147.390625 179.0625 145.152344 179.0625 C 142.894531 179.0625 141.082031 177.242188 141.082031 174.996094 L 141.082031 136.699219 C 141.082031 117.144531 157.019531 101.242188 176.613281 101.242188 C 196.210938 101.242188 212.148438 117.144531 212.148438 136.699219 L 212.148438 174.996094 C 212.148438 177.242188 210.332031 179.0625 208.078125 179.0625 " fill-opacity="1" fill-rule="nonzero"/></g><g clip-path="url(#2dfd7ee6e7)"><path fill="#f58013" d="M 251.933594 263.914062 C 251.933594 269.339844 247.480469 273.773438 242.042969 273.773438 L 117.226562 273.773438 C 111.789062 273.773438 107.34375 269.339844 107.34375 263.914062 L 107.453125 159.3125 C 107.453125 153.886719 111.910156 149.445312 117.347656 149.445312 L 239.683594 149.445312 C 245.121094 149.445312 249.574219 153.886719 249.574219 159.3125 L 251.933594 263.914062 " fill-opacity="1" fill-rule="nonzero"/></g><g clip-path="url(#bb7ef68d00)"><path fill="#f9af23" d="M 268.109375 263.914062 C 268.109375 269.339844 263.664062 273.773438 258.226562 273.773438 L 133.414062 273.773438 C 127.976562 273.773438 123.519531 269.339844 123.519531 263.914062 L 123.640625 159.3125 C 123.640625 153.886719 128.085938 149.445312 133.523438 149.445312 L 255.871094 149.445312 C 261.308594 149.445312 265.761719 153.886719 265.761719 159.3125 L 268.109375 263.914062 " fill-opacity="1" fill-rule="nonzero"/></g><path fill="#f58013" d="M 172.109375 174.996094 C 172.109375 180.203125 167.878906 184.425781 162.660156 184.425781 C 157.433594 184.425781 153.203125 180.203125 153.203125 174.996094 C 153.203125 169.785156 157.433594 165.570312 162.660156 165.570312 C 167.878906 165.570312 172.109375 169.785156 172.109375 174.996094 " fill-opacity="1" fill-rule="nonzero"/><path fill="#f58013" d="M 236.1875 174.996094 C 236.1875 180.203125 231.957031 184.425781 226.738281 184.425781 C 221.515625 184.425781 217.28125 180.203125 217.28125 174.996094 C 217.28125 169.785156 221.515625 165.570312 226.738281 165.570312 C 231.957031 165.570312 236.1875 169.785156 236.1875 174.996094 " fill-opacity="1" fill-rule="nonzero"/><g clip-path="url(#a2a6ee858d)"><path fill="#141515" d="M 226.164062 179.0625 C 223.914062 179.0625 222.089844 177.242188 222.089844 174.996094 L 222.089844 136.699219 C 222.089844 121.621094 209.800781 109.359375 194.699219 109.359375 C 179.59375 109.359375 167.300781 121.621094 167.300781 136.699219 L 167.300781 174.996094 C 167.300781 177.242188 165.476562 179.0625 163.230469 179.0625 C 160.980469 179.0625 159.15625 177.242188 159.15625 174.996094 L 159.15625 136.699219 C 159.15625 117.144531 175.097656 101.242188 194.699219 101.242188 C 214.296875 101.242188 230.234375 117.144531 230.234375 136.699219 L 230.234375 174.996094 C 230.234375 177.242188 228.410156 179.0625 226.164062 179.0625 " fill-opacity="1" fill-rule="nonzero"/></g><path fill="#ffffff" d="M 234.253906 206.890625 L 232.695312 206.816406 C 230.097656 206.695312 227.910156 208.480469 227.800781 210.820312 L 227.179688 223.980469 L 227.171875 223.964844 L 225.449219 220.917969 L 209.894531 193.425781 C 208.808594 191.503906 206.363281 190.824219 204.4375 191.910156 L 203.277344 192.5625 C 201.351562 193.652344 200.671875 196.082031 201.757812 198.003906 L 209.207031 211.175781 C 208.273438 210.972656 207.273438 211.089844 206.378906 211.589844 L 205.210938 212.242188 C 203.292969 213.332031 202.605469 215.761719 203.699219 217.683594 C 202.605469 215.761719 200.171875 215.085938 198.246094 216.167969 L 197.074219 216.828125 C 195.15625 217.910156 194.472656 220.347656 195.558594 222.269531 C 194.472656 220.347656 192.035156 219.671875 190.101562 220.753906 L 188.949219 221.40625 C 187.023438 222.492188 186.335938 224.929688 187.421875 226.847656 L 194.0625 238.589844 C 194.0625 238.589844 202.835938 254.59375 206.515625 259.011719 C 209.925781 263.136719 210.664062 262.101562 212.167969 263.59375 C 214.378906 265.792969 216.5 267.628906 218.425781 266.546875 L 236.730469 256.238281 C 238.667969 255.152344 238.589844 252.25 237.445312 249.355469 C 237.027344 248.304688 236.46875 245.359375 236.75 244.878906 C 236.75 244.878906 237.292969 242.921875 237.265625 242.574219 L 238.742188 211.335938 C 238.851562 209 236.84375 207.007812 234.253906 206.890625 " fill-opacity="1" fill-rule="nonzero"/></svg>